<?xml version="1.0"?>
<svg xmlns="http://www.w3.org/2000/svg" xmlns:xlink="http://www.w3.org/1999/xlink" xmlns:svgjs="http://svgjs.com/svgjs" version="1.1" width="512" height="512" x="0" y="0" viewBox="0 0 512 512" style="enable-background:new 0 0 512 512" xml:space="preserve" class=""><g><g xmlns="http://www.w3.org/2000/svg"><path d="m454.62 122.61h-.09l-12.59-29.57c-11.15-26.14-36.71-43.04-65.14-43.04h-161.6c-28.43 0-53.99 16.9-65.13 43.04l-12.6 29.57h-80.09c-31.64 0-57.38 25.74-57.38 57.38v224.63c0 31.64 25.74 57.38 57.38 57.38h397.24c31.64 0 57.38-25.74 57.38-57.38v-224.63c0-31.64-25.74-57.38-57.38-57.38zm-344.74 255.78c0 8.28-6.72 15-15 15-8.29 0-15-6.72-15-15v-59.79c0-8.29 6.71-15 15-15 8.28 0 15 6.71 15 15zm0-120.99c0 8.28-6.72 15-15 15-8.29 0-15-6.72-15-15v-59.79c0-8.28 6.71-15 15-15 8.28 0 15 6.72 15 15zm186.12 144.6c-75.12 0-136.24-61.12-136.24-136.24 0-75.13 61.12-136.24 136.24-136.24s136.24 61.11 136.24 136.24c0 75.12-61.12 136.24-136.24 136.24z" fill="#ededed" data-original="#000000" style="" class=""/><path d="m296 159.52c-58.58 0-106.24 47.66-106.24 106.24s47.66 106.24 106.24 106.24 106.24-47.66 106.24-106.24-47.66-106.24-106.24-106.24zm-32.69 138.93c5.85 5.86 5.86 15.36 0 21.22-5.86 5.85-15.36 5.85-21.22 0-14.4-14.4-22.33-33.55-22.33-53.91s7.93-39.5 22.33-53.91c5.86-5.85 15.36-5.85 21.22 0 5.86 5.86 5.86 15.36 0 21.22-8.74 8.73-13.55 20.34-13.55 32.69s4.81 23.96 13.55 32.69z" fill="#ededed" data-original="#000000" style="" class=""/></g></g></svg>
